<svg id="Layer_1" data-name="Layer 1" xmlns="http://www.w3.org/2000/svg" viewBox="0 0 1868.86 528.74"><defs><style>.cls-1{fill:#231f20;}.cls-2{fill:#fff;}</style></defs><title>duckflix-logo</title><polygon class="cls-1" points="1506.95 3.07 1444.05 3.07 1444.05 429.46 1497.69 479.19 1561.15 484.46 1561.15 51.99 1510.49 3.07 1506.95 3.07 1506.95 3.07"/><path class="cls-1" d="M1852.14,542c.58-3.16,38-208.39,38-208.39l-51.11-52.24h-66.53s-3.45,21.46-5.63,35c-13.2-14.3-32.24-35-32.24-35h-68.59s39.12,204.83,39.68,207.82c-.47,3-37.47,233.19-37.47,233.19L1741,777.68l43.4,5.15V744c18.24,14.22,59.81,46.57,59.81,46.57l57.33,7.95S1852.73,545.16,1852.14,542Z" transform="translate(-32.68 -278.23)"/><path class="cls-1" d="M1367.17,634.32V328.69l-50-47.4H1250v416L1303.3,744,1424.87,750l-2.69-54-55-61.77Z" transform="translate(-32.68 -278.23)"/><path class="cls-1" d="M1125.44,373.54h52.2V328.9l-49.81-47.69-3.51,0-116.26.07V694.4l53.34,44.25,64,.43v-174l52.9,0V516.85s-48.28-48.29-52.9-52.94V373.54Z" transform="translate(-32.68 -278.23)"/><path class="cls-2" d="M1490.63,699.75s16.24.8,44.08,2.82V293.64l-44.08.07v406Z" transform="translate(-32.68 -278.23)"/><polygon class="cls-2" points="1800.61 15.42 1750.92 15.42 1725.96 173.19 1723.01 173.19 1697.13 15.42 1648.33 15.42 1686.44 210.56 1649.61 438.64 1697 443.15 1721.41 255.11 1724.4 255.16 1748.07 448.44 1800.04 454.26 1762.9 216.14 1800.61 15.42 1800.61 15.42"/><path class="cls-2" d="M1308.23,293.6l-44.27.09V688.8s30,.83,102.34,4.05V652.78s-8.1-.85-58.07-2.57V293.6Z" transform="translate(-32.68 -278.23)"/><polygon class="cls-2" points="989.28 407.33 1033.95 407.33 1033.95 241.85 1091.07 241.78 1091.07 200.64 1033.73 200.68 1033.73 56.29 1091.28 56.29 1091.28 15.47 989.28 15.49 989.28 407.33 989.28 407.33"/><path d="M83.58,321H96.7c27.92-.06,36.74,8.45,36.77,36.43q.15,157.49,0,315c0,39.31-9.32,47.25-49.92,41.9Z" transform="translate(-32.68 -278.23)"/><path d="M32.68,278.23c32.12.68,64.34,0,96.29,2.7,12.81,1.08,27.19,6.92,37,15.18C184,311.3,200.21,329,215,347.45c6.4,8,9.33,20,10.51,30.58,1.89,17,1.27,34.31,1.28,51.48.08,95.63.4,191.26-.32,286.88-.12,15.93-2.56,32.72-8.12,47.53-10.42,27.75-32.51,42-62.31,42.66q-36.34.82-72.7-.18c-5-.14-10.66-3.34-14.52-6.8-12.43-11.11-24.16-23-36.16-34.59Q32.68,521.62,32.68,278.23ZM43,753.88c29.13,0,57.29,1.07,85.32-.37,19.28-1,33.19-13.3,38.79-31.28a167,167,0,0,0,7.73-47.84c.66-103.58.39-207.17.25-310.76a160.23,160.23,0,0,0-2.17-26.29c-3.85-22.84-16.51-41.06-39.17-44.78-29.55-4.85-60-4.42-90.74-6.31Z" transform="translate(-32.68 -278.23)"/><path class="cls-2" d="M43,753.88V286.25c30.78,1.89,61.19,1.46,90.74,6.31,22.66,3.72,35.32,21.94,39.17,44.78a160.23,160.23,0,0,1,2.17,26.29c.14,103.59.42,207.18-.25,310.76a167,167,0,0,1-7.73,47.84c-5.6,18-19.51,30.3-38.79,31.28C100.27,754.94,72.12,753.88,43,753.88Zm38.5-428V715.22c40.2,5.29,49.42-2.57,49.42-41.48q0-155.91,0-311.82c0-27.7-8.76-36.13-36.4-36.07Z" transform="translate(-32.68 -278.23)"/><path d="M282.35,293.8c16.57,0,32.48-.37,48.35.27,3.82.15,8.25,2.88,11.1,5.73,8,8,15.3,16.66,25,27.42V293.83h52.69c.81,0,2-.19,2.39.25,12.68,13.21,25.83,26,37.53,40,3.24,3.88,2.84,11.42,2.84,17.28q.22,173.92,0,347.84c0,10.55-.3,21.32-2.36,31.61C450,780.5,393.16,805.3,351.6,775.7c-21.77-15.51-40.54-36.73-56.34-58.52-9.07-12.51-13.08-31.28-13.22-47.28-1.12-123.69-.73-247.4-.78-371.1C281.27,297.65,281.75,296.5,282.35,293.8Zm8.75,9.6c-.27,2.95-.68,5.3-.68,7.65q0,178.21.33,356.42a115.17,115.17,0,0,0,5.15,32.42c7.64,25.28,25.82,37.73,53.32,38.21,30.67.53,51.22-11.51,58.93-37.45,4.1-13.81,5.83-28.8,5.89-43.26.46-113.5.26-227,.23-340.5,0-4.33-.4-8.67-.64-13.51H376.2c0,5.38,0,10.17,0,15q0,169.64-.17,339.27A107.34,107.34,0,0,1,372,686.39c-2.93,10.31-11.75,14.19-22.07,13.75-10.71-.46-17.79-6.35-19.75-16.73a145.53,145.53,0,0,1-2.39-26.73q-.23-169.64-.1-339.27c0-4.68,0-9.37,0-14Z" transform="translate(-32.68 -278.23)"/><path class="cls-2" d="M291.09,303.4h36.57c0,4.64,0,9.33,0,14q0,169.64.1,339.27a145.53,145.53,0,0,0,2.39,26.73c2,10.38,9,16.27,19.75,16.73,10.32.44,19.14-3.44,22.07-13.75A107.34,107.34,0,0,0,376,657.61q.4-169.64.17-339.27c0-4.79,0-9.59,0-15h37.42c.24,4.84.64,9.18.64,13.51,0,113.5.23,227-.23,340.5-.06,14.47-1.79,29.45-5.89,43.26-7.71,25.93-28.25,38-58.93,37.45-27.5-.48-45.68-12.93-53.32-38.21a115.17,115.17,0,0,1-5.15-32.42q-.6-178.21-.33-356.42C290.42,308.7,290.82,306.35,291.09,303.4Z" transform="translate(-32.68 -278.23)"/><path d="M603.29,288.28c38,13.17,61.19,43.58,84.21,73.76,4.39,5.76,6.85,14.34,7.05,21.7.79,29.09.32,58.22.32,89.09-14.06,0-27.92.39-41.72-.29-3.2-.16-6.67-3.56-9.22-6.23-9.31-9.7-18.28-19.72-27.38-29.61l-2.89,2.18v110c12.14,0,24.1-.55,36,.27,4.83.34,10,2.84,14.07,5.77,25.86,18.83,36.83,43.45,32.12,76-2.59,17.89-.48,36.46-.47,54.73,0,31.55-14.69,54.46-42.52,68-28.49,13.89-56.71,11.8-82.2-7.74-29.14-22.33-45.64-53-46.14-89.1-1.35-97.52-.51-195.07-.25-292.6,0-8.06,1.75-16.2,3.42-24.15,5.8-27.66,22.38-45.14,50-51.88Zm9.63,269.12c0,4.84,0,9,0,13.18,0,28.35.23,56.71-.26,85.05-.29,16.64-10.52,27.33-24.26,27-12.8-.32-20.32-9.91-20.34-27.25q-.15-146.22.16-292.45a53.16,53.16,0,0,1,3.94-20.28c5.71-13.36,21.64-17,31.54-6.41,5,5.34,8.44,14.12,8.8,21.52,1.12,22.76.41,45.61.41,69H648.3c0-28.7,1.53-57-.5-85-1.54-21.19-16.41-34.84-36.13-41.44-41.53-13.91-77.32,11.49-77.9,57.88-1.27,100.94-.9,201.91-.29,302.87.19,31.21,23.36,53.17,54.87,55.48,28,2.05,55.8-17.67,58.23-47.31,3-36.85.73-74.15.73-111.81Z" transform="translate(-32.68 -278.23)"/><path class="cls-2" d="M612.92,557.4h34.39c0,37.66,2.3,75-.73,111.81-2.44,29.64-30.21,49.37-58.23,47.31-31.52-2.31-54.69-24.27-54.87-55.48-.61-101-1-201.92.29-302.87.58-46.39,36.37-71.79,77.9-57.88,19.72,6.6,34.6,20.25,36.13,41.44,2,28,.5,56.35.5,85H612.91c0-23.41.71-46.26-.41-69-.36-7.41-3.78-16.18-8.8-21.52-9.9-10.54-25.83-7-31.54,6.41a53.16,53.16,0,0,0-3.94,20.28q-.39,146.22-.16,292.45c0,17.35,7.54,26.94,20.34,27.25,13.74.34,24-10.35,24.26-27,.5-28.34.22-56.7.26-85.05C612.93,566.42,612.92,562.25,612.92,557.4Z" transform="translate(-32.68 -278.23)"/><path d="M770.27,297.6c17.23,0,33.38-.23,49.51.23,2.72.08,5.83,2.67,7.93,4.89,6.54,6.91,12.68,14.19,20,22.5l7.86-27.63c15.35,0,30.81-.43,46.22.32,3.56.18,7,4.34,10.35,6.82,20,14.74,21.11,32.55,13.91,55.68-13.23,42.49-23,86.06-33.85,129.28a31.88,31.88,0,0,0,.3,15.92q32.56,111.89,65.67,223.61c.92,3.12,1.51,6.34,2.6,11-19.05,0-37.32,0-55.59-.05-1.37,0-3.19-.32-4-1.22-13.54-14.63-32.15-24.54-41.83-45v46.2c-16.62,0-32.33.11-48-.14-1.88,0-3.93-1.71-5.54-3.06-3.38-2.86-6.13-6.6-9.8-8.93-21.86-13.87-26.65-33.29-26.33-58.77,1.47-119.22.65-238.48.65-357.72ZM903,695.7c-18.11-66.7-36-132.38-53.63-198.15a33.57,33.57,0,0,1-.23-16.09c7-28.23,14.65-56.3,22.06-84.43,7.86-29.86,15.71-59.73,24-91.35-8.92,0-16.59.52-24.16-.15-7.34-.65-10.22,2.27-12,9.17C848.81,353.88,838.17,393,827.6,432.06c-3.29,12.18-6.82,24.29-10.25,36.43L815,468V306.47H779.06V695.78h36.26V515.32A25.27,25.27,0,0,1,820.92,526q20.77,72.19,41.47,144.4c7.84,27.19,7.93,27.17,36.5,26A37.31,37.31,0,0,0,903,695.7Z" transform="translate(-32.68 -278.23)"/><path class="cls-2" d="M903,695.7a37.31,37.31,0,0,1-4.11.71c-28.57,1.16-28.66,1.18-36.5-26Q841.57,598.22,820.92,526a25.27,25.27,0,0,0-5.59-10.68V695.78H779.06V306.47H815V468l2.38.44c3.42-12.14,7-24.25,10.25-36.43C838.17,393,848.81,353.88,859,314.69c1.8-6.89,4.68-9.81,12-9.17,7.57.67,15.24.15,24.16.15-8.31,31.62-16.16,61.49-24,91.35-7.41,28.13-15,56.21-22.06,84.43a33.57,33.57,0,0,0,.23,16.09C867,563.32,884.89,629,903,695.7Z" transform="translate(-32.68 -278.23)"/></svg>